<svg id="Группа_3" data-name="Группа 3" xmlns="http://www.w3.org/2000/svg" width="72.38" height="51.38" viewBox="0 0 72.38 51.38">
  <defs>
    <style>
      .cls-1 {
        fill: #a3bbc8;
      }

      .cls-2 {
        fill: #243f4d;
        fill-rule: evenodd;
      }
    </style>
  </defs>
  <circle class="cls-1" cx="55.505" cy="34.505" r="16.875"/>
  <path class="cls-2" d="M1853.52,1297.96l-1.66-6.55a1,1,0,0,0,.8-0.97v-1.06a4.193,4.193,0,0,0-4.21-4.16h-7.55v-2.17a2.064,2.064,0,0,0-2.07-2.05h-38.48a2.057,2.057,0,0,0-2.07,2.05V1301a1,1,0,0,0,2,0v-17.95a0.068,0.068,0,0,1,.07-0.07h38.48a0.067,0.067,0,0,1,.06.07V1301a1.005,1.005,0,0,0,2.01,0v-1.12h11.82a3.278,3.278,0,0,1,3.12,2.24h-3.12a1,1,0,0,0-1,.99v2.11a3.133,3.133,0,0,0,3.14,3.11H1856v4.35h-2.62a6.375,6.375,0,0,0-12,0h-0.48v-7.46a1.005,1.005,0,0,0-2.01,0v7.46H1818.1a6.368,6.368,0,0,0-11.99,0h-5.76a0.067,0.067,0,0,1-.07-0.06v-2.18h4.34a0.99,0.99,0,1,0,0-1.98H1795a0.99,0.99,0,1,0,0,1.98h3.28v2.18a2.055,2.055,0,0,0,2.07,2.04h5.41v0.07a6.345,6.345,0,0,0,12.69,0v-0.07h22.58v0.07a6.345,6.345,0,0,0,12.69,0v-0.07H1857a0.994,0.994,0,0,0,1-.99v-10.56A5.238,5.238,0,0,0,1853.52,1297.96Zm-12.62-10.76h7.55a2.2,2.2,0,0,1,2.2,2.18v0.07h-9.75v-2.25Zm0,10.7v-6.47h8.9l1.64,6.47H1840.9Zm-28.8,21.12a4.29,4.29,0,1,1,4.35-4.29A4.326,4.326,0,0,1,1812.1,1319.02Zm35.28,0a4.29,4.29,0,1,1,4.34-4.29A4.319,4.319,0,0,1,1847.38,1319.02Zm8.62-12.67h-1.14a1.137,1.137,0,0,1-1.14-1.13v-1.12H1856v2.25h0Zm-43.9,6.33a2.05,2.05,0,1,0,2.08,2.05A2.064,2.064,0,0,0,1812.1,1312.68Zm35.28,0a2.05,2.05,0,1,0,2.07,2.05A2.064,2.064,0,0,0,1847.38,1312.68Zm-11.76-4.22h-14.96a0.99,0.99,0,1,0,0,1.98h14.96A0.99,0.99,0,1,0,1835.62,1308.46Zm-25.65-4.23h-12.83a0.99,0.99,0,1,0,0,1.98h12.83A0.99,0.99,0,1,0,1809.97,1304.23Zm18.88-13.44a1.027,1.027,0,0,0-1.42,0l-8.91,8.81-4.64-4.58a1.008,1.008,0,0,0-1.42,0,0.984,0.984,0,0,0,0,1.4l5.35,5.28a1.007,1.007,0,0,0,.71.29,1.042,1.042,0,0,0,.71-0.29l9.62-9.51A0.984,0.984,0,0,0,1828.85,1290.79Z" transform="translate(-1794 -1281)"/>
</svg>
