<svg id="Группа_2" data-name="Группа 2" xmlns="http://www.w3.org/2000/svg" width="73.38" height="59.38" viewBox="0 0 73.38 59.38">
  <defs>
    <style>
      .cls-1 {
        fill: #a3bbc8;
      }

      .cls-2 {
        fill: #243f4d;
        fill-rule: evenodd;
      }
    </style>
  </defs>
  <circle class="cls-1" cx="56.505" cy="42.505" r="16.875"/>
  <path class="cls-2" d="M1554.64,1273h-57.28a3.367,3.367,0,0,0-3.36,3.36v41.14a3.367,3.367,0,0,0,3.36,3.36h21.7l-0.88,7h-3.63a1.07,1.07,0,1,0,0,2.14h22.9a1.07,1.07,0,1,0,0-2.14h-3.63l-0.88-7h21.7a3.367,3.367,0,0,0,3.36-3.36v-41.14A3.367,3.367,0,0,0,1554.64,1273Zm-34.3,54.86,0.88-7h9.56l0.88,7h-11.32Zm35.51-10.36a1.208,1.208,0,0,1-1.21,1.21h-57.28a1.208,1.208,0,0,1-1.21-1.21v-41.14a1.216,1.216,0,0,1,1.21-1.22h57.28a1.216,1.216,0,0,1,1.21,1.22v41.14h0Zm-11.52-39.93h-44.67a1.073,1.073,0,0,0-1.08,1.07v35.43a1.073,1.073,0,0,0,1.08,1.07h3.43a1.07,1.07,0,1,0,0-2.14h-2.36v-33.29h43.6A1.07,1.07,0,0,0,1544.33,1277.57Zm8.01,0h-3.43a1.07,1.07,0,1,0,0,2.14h2.36V1313h-43.6a1.07,1.07,0,0,0,0,2.14h44.67a1.073,1.073,0,0,0,1.08-1.07v-35.43A1.073,1.073,0,0,0,1552.34,1277.57Zm-6.87,5.72a3.359,3.359,0,0,0-2.97,4.93l-8.6,9.09a3.361,3.361,0,0,0-3.72.61l-7.35-3.88a3.272,3.272,0,0,0,.04-0.54,3.365,3.365,0,1,0-6.4,1.45l-8.4,8.14a3.349,3.349,0,1,0,1.49,1.53l8.41-8.14a3.325,3.325,0,0,0,3.85-.55l7.35,3.88a3.313,3.313,0,0,0-.04.55,3.365,3.365,0,1,0,6.33-1.58l8.6-9.09A3.358,3.358,0,1,0,1545.47,1283.29Zm-38.94,24a1.215,1.215,0,1,1,0-2.43A1.215,1.215,0,0,1,1506.53,1307.29Zm12.98-12.58a1.21,1.21,0,1,1,1.22-1.21A1.216,1.216,0,0,1,1519.51,1294.71Zm12.98,6.86a1.215,1.215,0,1,1,1.22-1.21A1.216,1.216,0,0,1,1532.49,1301.57Zm12.98-13.71a1.215,1.215,0,1,1,1.22-1.22A1.225,1.225,0,0,1,1545.47,1287.86Zm0,4.57a1.071,1.071,0,0,0-1.07,1.07v16a1.075,1.075,0,0,0,2.15,0v-16A1.073,1.073,0,0,0,1545.47,1292.43Zm-25.96,6.86a1.065,1.065,0,0,0-1.07,1.07v9.14a1.07,1.07,0,0,0,2.14,0v-9.14A1.065,1.065,0,0,0,1519.51,1299.29Zm12.98,6.85a1.071,1.071,0,0,0-1.07,1.07v2.29a1.07,1.07,0,0,0,2.14,0v-2.29A1.071,1.071,0,0,0,1532.49,1306.14Z" transform="translate(-1494 -1273)"/>
</svg>
