<?xml version="1.0" encoding="UTF-8"?>
<svg xmlns="http://www.w3.org/2000/svg" xmlns:xlink="http://www.w3.org/1999/xlink" width="14pt" height="14pt" viewBox="0 0 15 15" version="1.1">
<g id="surface1">
<path style=" stroke:none;fill-rule:nonzero;fill:#526278;fill-opacity:1;" d="M 4.230469 4.089844 L 4.230469 5.335938 C 4.230469 5.417969 4.277344 5.5 4.351562 5.542969 L 7.382812 7.292969 C 7.542969 7.382812 7.542969 7.617188 7.382812 7.707031 L 4.351562 9.457031 C 4.277344 9.5 4.230469 9.582031 4.230469 9.664062 L 4.230469 10.910156 C 4.230469 11.09375 4.433594 11.210938 4.59375 11.117188 L 10.5 7.707031 C 10.65625 7.617188 10.65625 7.382812 10.5 7.292969 L 4.59375 3.882812 C 4.433594 3.789062 4.230469 3.90625 4.230469 4.089844 Z M 4.230469 4.089844 "/>
<path style=" stroke:none;fill-rule:nonzero;fill:rgb#526278;fill-opacity:1;" d="M 10.5 7.292969 L 4.59375 3.882812 C 4.5625 3.867188 4.53125 3.859375 4.503906 3.855469 L 10.199219 7.140625 C 10.359375 7.234375 10.359375 7.464844 10.199219 7.558594 L 4.292969 10.96875 C 4.277344 10.976562 4.261719 10.980469 4.246094 10.988281 C 4.292969 11.125 4.457031 11.195312 4.59375 11.117188 L 10.5 7.707031 C 10.65625 7.617188 10.65625 7.382812 10.5 7.292969 Z M 10.5 7.292969 "/>
<path style="fill:none;stroke-width:1;stroke-linecap:butt;stroke-linejoin:miter;stroke:rgb(0%,0%,0%);stroke-opacity:1;stroke-miterlimit:10;" d="M 28.203125 27.265625 L 28.203125 35.572917 C 28.203125 36.119792 28.515625 36.666667 29.010417 36.953125 L 49.21875 48.619792 C 50.286458 49.21875 50.286458 50.78125 49.21875 51.380208 L 29.010417 63.046875 C 28.515625 63.333333 28.203125 63.880208 28.203125 64.427083 L 28.203125 72.734375 C 28.203125 73.958333 29.557292 74.739583 30.625 74.114583 L 70 51.380208 C 71.041667 50.78125 71.041667 49.21875 70 48.619792 L 30.625 25.885417 C 29.557292 25.260417 28.203125 26.041667 28.203125 27.265625 Z M 28.203125 27.265625 " transform="matrix(0.15,0,0,0.15,0,0)"/>
</g>
</svg>
