<?xml version="1.0" encoding="UTF-8"?>
<svg xmlns="http://www.w3.org/2000/svg" xmlns:xlink="http://www.w3.org/1999/xlink" width="15pt" height="15pt" viewBox="0 0 30 30" version="1.1">
<g id="surface1">
<path style=" stroke:none;fill-rule:nonzero;fill:rgb(0%,0%,0%);fill-opacity:1;" d="M 28.402344 0 L 1.640625 0 C 1.167969 0 0.738281 0.261719 0.519531 0.683594 C 0.300781 1.109375 0.339844 1.621094 0.621094 2.007812 L 10.425781 15.820312 C 10.425781 15.824219 10.429688 15.828125 10.433594 15.832031 C 10.789062 16.316406 10.984375 16.898438 10.984375 17.496094 L 10.984375 28.753906 C 10.980469 29.089844 11.113281 29.410156 11.347656 29.644531 C 11.582031 29.882812 11.902344 30.015625 12.234375 30.015625 C 12.40625 30.015625 12.574219 29.980469 12.730469 29.917969 L 18.238281 27.816406 C 18.730469 27.664062 19.058594 27.199219 19.058594 26.636719 L 19.058594 17.496094 C 19.0625 16.898438 19.253906 16.316406 19.609375 15.832031 C 19.613281 15.828125 19.617188 15.824219 19.621094 15.820312 L 29.421875 2.007812 C 29.703125 1.621094 29.742188 1.109375 29.523438 0.683594 C 29.304688 0.261719 28.875 0 28.402344 0 Z M 18.382812 14.929688 C 17.832031 15.675781 17.539062 16.574219 17.535156 17.496094 L 17.535156 26.453125 L 12.507812 28.371094 L 12.507812 17.496094 C 12.503906 16.574219 12.210938 15.675781 11.660156 14.929688 L 2.144531 1.523438 L 27.898438 1.523438 Z M 18.382812 14.929688 "/>
</g>
</svg>
