<svg xmlns="http://www.w3.org/2000/svg" width="15" height="11" viewBox="0 0 15 11">
  <defs>
    <style>
      .cls-1 {
        fill: #fff;
        fill-rule: evenodd;
      }
    </style>
  </defs>
  <path class="cls-1" d="M1533.93,2024.01a0.693,0.693,0,0,0,.43-0.16l5.43-4.92c0.01,0,.01-0.01.02-0.01l0.03-.03v-0.01h0a0.581,0.581,0,0,0,.15-0.34,0.57,0.57,0,0,0-.01-0.13,0.581,0.581,0,0,0-.16-0.31l-0.03-.03-5.43-4.91a0.658,0.658,0,0,0-.88.02,0.581,0.581,0,0,0,.03.84l4.31,3.89h-12.19a0.611,0.611,0,0,0-.62.59,0.6,0.6,0,0,0,.62.59h12.19l-4.31,3.9a0.569,0.569,0,0,0-.03.83A0.613,0.613,0,0,0,1533.93,2024.01Z" transform="translate(-1525 -2013)"/>
</svg>
